<?xml version="1.0" encoding="UTF-8"?>
<svg version="1.1" xmlns="http://www.w3.org/2000/svg" width="500" height="500">
<path d="M0 0 C1.14202881 -0.00056396 2.28405762 -0.00112793 3.46069336 -0.00170898 C26.48228987 0.29478987 26.48228987 0.29478987 31.5625 5.375 C31.64950342 7.00972882 31.66951063 8.64814055 31.66015625 10.28515625 C31.65532227 11.76918945 31.65532227 11.76918945 31.65039062 13.28320312 C31.63782227 14.84458008 31.63782227 14.84458008 31.625 16.4375 C31.62048828 17.48228516 31.61597656 18.52707031 31.61132812 19.60351562 C31.59949913 22.1940666 31.58301689 24.78450559 31.5625 27.375 C29.9125 27.705 28.2625 28.035 26.5625 28.375 C26.32466797 27.48748047 26.32466797 27.48748047 26.08203125 26.58203125 C24.52046426 21.29340933 23.12515966 17.77272528 18.5625 14.375 C8.59775078 9.67163837 -1.47438304 7.53897171 -12.40234375 10.05859375 C-20.39634585 13.02709068 -26.02914024 17.46544035 -29.61328125 25.25 C-29.88527344 25.95125 -30.15726563 26.6525 -30.4375 27.375 C-30.79457031 28.21675781 -31.15164062 29.05851562 -31.51953125 29.92578125 C-34.53499503 41.256226 -34.30748013 57.08441755 -28.4375 67.375 C-27.97859375 68.1896875 -27.5196875 69.004375 -27.046875 69.84375 C-23.61098027 75.41351619 -19.83080217 80.24389928 -13.4375 82.375 C-13.4375 83.035 -13.4375 83.695 -13.4375 84.375 C-12.7775 84.49875 -12.1175 84.6225 -11.4375 84.75 C-8.4375 85.375 -8.4375 85.375 -4.875 86.4375 C1.29442904 88.01517842 8.49706633 88.39681122 14.5625 86.375 C15.93097142 83.63805716 15.69217921 81.43900753 15.6953125 78.37890625 C15.69660156 77.18072266 15.69789063 75.98253906 15.69921875 74.74804688 C15.69535156 73.49056641 15.69148438 72.23308594 15.6875 70.9375 C15.69136719 69.68388672 15.69523437 68.43027344 15.69921875 67.13867188 C15.69792969 65.93919922 15.69664062 64.73972656 15.6953125 63.50390625 C15.69362061 61.84983765 15.69362061 61.84983765 15.69189453 60.16235352 C15.68512441 57.28971461 15.68512441 57.28971461 14.5625 54.375 C11.05059191 53.14530122 11.05059191 53.14530122 7.5625 52.375 C7.5625 51.385 7.5625 50.395 7.5625 49.375 C18.7825 49.375 30.0025 49.375 41.5625 49.375 C41.2325 50.695 40.9025 52.015 40.5625 53.375 C39.593125 53.49875 38.62375 53.6225 37.625 53.75 C36.614375 53.95625 35.60375 54.1625 34.5625 54.375 C34.0675 55.365 34.0675 55.365 33.5625 56.375 C34.74839722 56.38901855 34.74839722 56.38901855 35.95825195 56.40332031 C39.59776179 56.4575501 43.23605807 56.54109457 46.875 56.625 C48.11830078 56.63917969 49.36160156 56.65335937 50.64257812 56.66796875 C58.67377395 56.87876129 65.21895051 58.07747022 72.5625 61.375 C72.5625 62.035 72.5625 62.695 72.5625 63.375 C73.2225 63.375 73.8825 63.375 74.5625 63.375 C74.5625 64.035 74.5625 64.695 74.5625 65.375 C75.2225 65.375 75.8825 65.375 76.5625 65.375 C80.72136125 72.89436967 82.02794652 79.66140514 79.8671875 88.0859375 C77.82387177 93.8037874 75.23903757 97.51177331 70.5625 101.375 C69.9025 101.375 69.2425 101.375 68.5625 101.375 C68.5625 102.035 68.5625 102.695 68.5625 103.375 C61.38197541 106.86401845 55.5212799 107.91970737 47.5625 107.375 C47.5625 106.385 47.5625 105.395 47.5625 104.375 C49.0187545 103.70380451 50.47757867 103.03818193 51.9375 102.375 C53.15566406 101.818125 53.15566406 101.818125 54.3984375 101.25 C56.5625 100.375 56.5625 100.375 58.5625 100.375 C58.5625 99.715 58.5625 99.055 58.5625 98.375 C59.2225 98.375 59.8825 98.375 60.5625 98.375 C61.0265625 96.951875 61.0265625 96.951875 61.5 95.5 C62.5625 92.375 62.5625 92.375 63.5625 90.375 C64.27987234 83.13978756 64.50008556 76.91579794 59.96484375 70.9609375 C59.50207031 70.43757813 59.03929687 69.91421875 58.5625 69.375 C57.86125 68.570625 57.16 67.76625 56.4375 66.9375 C53.31848369 65.24238244 51.38592484 65.04226341 47.8828125 64.77734375 C46.88781738 64.69863037 45.89282227 64.61991699 44.86767578 64.53881836 C44.10696777 64.4847583 43.34625977 64.43069824 42.5625 64.375 C42.66997018 73.97166223 42.78259727 83.56824594 42.90183926 93.16476917 C42.95704319 97.62064451 43.01045919 102.07652644 43.05981445 106.5324707 C43.10749527 110.83133884 43.15983949 115.13012703 43.21544075 119.42889977 C43.23584744 121.07035015 43.25456332 122.71182245 43.27157402 124.35331154 C43.29565533 126.64944004 43.32570477 128.94541767 43.35717773 131.24145508 C43.38049416 133.2033654 43.38049416 133.2033654 43.40428162 135.20491028 C43.42148568 138.39953198 43.42148568 138.39953198 44.5625 141.375 C47.8625 141.705 51.1625 142.035 54.5625 142.375 C54.8925 143.695 55.2225 145.015 55.5625 146.375 C42.6925 146.375 29.8225 146.375 16.5625 146.375 C16.8925 145.055 17.2225 143.735 17.5625 142.375 C21.0275 141.385 21.0275 141.385 24.5625 140.375 C25.80801699 135.56101219 25.68939044 130.85153113 25.66015625 125.91796875 C25.6587413 125.01500565 25.65732635 124.11204254 25.65586853 123.18171692 C25.65028823 120.30861037 25.63773934 117.43558284 25.625 114.5625 C25.61998245 112.61002717 25.61541999 110.65755311 25.61132812 108.70507812 C25.60032525 103.92835515 25.58307418 99.15169096 25.5625 94.375 C24.93717377 94.52475281 24.31184753 94.67450562 23.66757202 94.82879639 C16.35507647 96.53400676 9.23414121 96.74191341 1.75 96.75 C0.56857422 96.77449219 -0.61285156 96.79898438 -1.83007812 96.82421875 C-12.56984194 96.85952756 -22.73409712 94.81402949 -31.75 88.75 C-32.65363281 88.15960938 -33.55726563 87.56921875 -34.48828125 86.9609375 C-35.13152344 86.43757813 -35.77476562 85.91421875 -36.4375 85.375 C-36.4375 84.715 -36.4375 84.055 -36.4375 83.375 C-37.0253125 83.14554687 -37.613125 82.91609375 -38.21875 82.6796875 C-44.79231896 78.81424378 -48.65759074 68.98499053 -50.77734375 61.9375 C-53.45073046 47.51070309 -52.34769667 32.47371025 -44.1875 20 C-32.97222315 5.34663617 -17.98817467 -0.02229018 0 0 Z " fill="#D2D3D5" transform="translate(222.4375,204.625)"/>
<path d="M0 0 C0 0.66 0 1.32 0 2 C0.81210937 2.15275391 0.81210937 2.15275391 1.640625 2.30859375 C4.60596581 3.17757607 7.05524946 4.55472291 9.75 6.0625 C10.73484375 6.61035156 11.7196875 7.15820312 12.734375 7.72265625 C13.48203125 8.14417969 14.2296875 8.56570312 15 9 C15 9.66 15 10.32 15 11 C15.72574219 11.268125 16.45148438 11.53625 17.19921875 11.8125 C19.96864024 12.98670381 22.30919434 14.3394324 24.8125 16 C25.60269531 16.515625 26.39289063 17.03125 27.20703125 17.5625 C28.09455078 18.2740625 28.09455078 18.2740625 29 19 C29 19.66 29 20.32 29 21 C29.55171875 21.2475 30.1034375 21.495 30.671875 21.75 C33.45136707 23.24234474 35.7814707 25.03672523 38.25 27 C39.14203125 27.70125 40.0340625 28.4025 40.953125 29.125 C41.96632813 30.053125 41.96632813 30.053125 43 31 C43 31.66 43 32.32 43 33 C43.66 33 44.32 33 45 33 C45 33.66 45 34.32 45 35 C45.66 35 46.32 35 47 35 C47 35.66 47 36.32 47 37 C47.66 37 48.32 37 49 37 C52 40.46153846 52 40.46153846 52 43 C52.66 43 53.32 43 54 43 C54 43.66 54 44.32 54 45 C54.66 45 55.32 45 56 45 C56 45.66 56 46.32 56 47 C56.66 47 57.32 47 58 47 C69.50524315 61.84798271 79.97655157 80.67371801 78 100 C76.32824179 106.86776345 73.55523288 112.60564528 69 118 C68.34 118 67.68 118 67 118 C67 118.66 67 119.32 67 120 C66.34 120 65.68 120 65 120 C65 120.66 65 121.32 65 122 C64.01 122 63.02 122 62 122 C62 122.66 62 123.32 62 124 C50.06034366 130.68620755 38.47492729 132.6794081 25 132 C25 131.34 25 130.68 25 130 C25.845625 129.81824219 26.69125 129.63648438 27.5625 129.44921875 C39.77363062 126.74334322 50.91313388 123.73985195 58.5 112.8125 C62.76639891 104.81300205 63.81487941 95.68960589 61.41845703 86.85644531 C60.25964375 83.51152962 58.87394185 80.33454801 57.41015625 77.109375 C56.30943295 74.68229536 55.50748406 72.59523495 55 70 C54.34 70 53.68 70 53 70 C52.74347656 69.47792969 52.48695313 68.95585937 52.22265625 68.41796875 C49.13329692 62.47849341 45.34468061 57.55439271 40.98828125 52.48046875 C39.28378456 50.35403379 38.08233189 48.48299669 37 46 C36.34 46 35.68 46 35 46 C35 45.34 35 44.68 35 44 C34.34 44 33.68 44 33 44 C33 43.34 33 42.68 33 42 C32.34 42 31.68 42 31 42 C31 41.34 31 40.68 31 40 C30.34 40 29.68 40 29 40 C29 39.34 29 38.68 29 38 C28.484375 37.773125 27.96875 37.54625 27.4375 37.3125 C24.10452995 35.51782382 20.85296329 33.50034985 18 31 C18 30.34 18 29.68 18 29 C17.29875 28.7525 16.5975 28.505 15.875 28.25 C12.60485452 26.82819762 9.858878 25.12753712 7 23 C7 22.34 7 21.68 7 21 C6.14535156 20.7525 5.29070312 20.505 4.41015625 20.25 C0.75528331 18.91029858 -2.3067295 17.08275866 -5.5625 15 C-19.16059523 6.59522538 -33.79014119 -0.10017971 -49 -5 C-49.97453125 -5.33 -50.9490625 -5.66 -51.953125 -6 C-60.49752839 -8.80431701 -69.17410518 -11.26307974 -78 -13 C-78.85352051 -13.16822266 -79.70704102 -13.33644531 -80.58642578 -13.50976562 C-103.02677655 -17.60306957 -126.61848977 -16.98850496 -145.86328125 -3.71484375 C-151.25035637 0.44242762 -154.22850836 5.52227093 -156 12 C-156.21251894 14.81794589 -156.33406665 17.49914646 -156.3125 20.3125 C-156.30758545 21.06797119 -156.3026709 21.82344238 -156.29760742 22.60180664 C-156.11091572 31.48545924 -153.21966613 37.95935556 -149.0859375 45.73828125 C-148.07882358 47.83583146 -147.46772717 49.72892476 -147 52 C-155.00645795 49.0346452 -159.74677923 38.72662598 -163.19921875 31.484375 C-167.88731537 20.40025065 -169.95506878 8.64094986 -166 -3 C-160.10211079 -14.77425327 -150.91936071 -22.26076455 -138.76171875 -26.84375 C-92.66850689 -41.93154439 -40.58824104 -20.48925629 0 0 Z " fill="#D0D2D4" transform="translate(297,188)"/>
<path d="M0 0 C0.66161133 0.47300537 1.32322266 0.94601074 2.00488281 1.43334961 C3.58360405 2.592131 5.11017176 3.82135922 6.625 5.0625 C6.625 5.7225 6.625 6.3825 6.625 7.0625 C7.285 7.0625 7.945 7.0625 8.625 7.0625 C8.625 7.7225 8.625 8.3825 8.625 9.0625 C9.285 9.0625 9.945 9.0625 10.625 9.0625 C10.625 9.7225 10.625 10.3825 10.625 11.0625 C11.285 11.0625 11.945 11.0625 12.625 11.0625 C12.625 11.7225 12.625 12.3825 12.625 13.0625 C13.18703125 13.28292969 13.7490625 13.50335938 14.328125 13.73046875 C25.96595487 20.47961839 34.79746357 38.3302874 38.77734375 50.4453125 C41.08335162 60.28569631 40.82743866 70.22635803 35.625 79.0625 C32.64255512 83.44219988 29.92258992 86.66019679 24.625 88.0625 C24.625 88.7225 24.625 89.3825 24.625 90.0625 C12.90298179 96.59977939 1.74857621 97.51216568 -11.375 97.0625 C-11.375 96.4025 -11.375 95.7425 -11.375 95.0625 C-10.40820312 94.91554688 -9.44140625 94.76859375 -8.4453125 94.6171875 C3.95863087 92.55145999 12.97243645 88.49158353 20.8125 78.1875 C24.59835906 71.66015679 25.82225813 64.83693182 23.984375 57.5078125 C23.4726046 55.81696325 22.93917835 54.13243428 22.37890625 52.45703125 C21.60821256 50.00918029 21.08651683 47.58515994 20.625 45.0625 C19.965 45.0625 19.305 45.0625 18.625 45.0625 C18.29886719 44.45921875 17.97273437 43.8559375 17.63671875 43.234375 C17.19972656 42.43515625 16.76273438 41.6359375 16.3125 40.8125 C15.66861328 39.62914062 15.66861328 39.62914062 15.01171875 38.421875 C13.6715516 36.03077026 13.6715516 36.03077026 11.95703125 33.890625 C10.625 32.0625 10.625 32.0625 10.625 30.0625 C9.965 30.0625 9.305 30.0625 8.625 30.0625 C3.625 24.58630952 3.625 24.58630952 3.625 22.0625 C2.965 22.0625 2.305 22.0625 1.625 22.0625 C1.625 21.4025 1.625 20.7425 1.625 20.0625 C1.04234375 19.794375 0.4596875 19.52625 -0.140625 19.25 C-2.40286601 18.04769009 -4.18076318 16.72424087 -6.125 15.0625 C-6.73859375 14.546875 -7.3521875 14.03125 -7.984375 13.5 C-9.375 12.0625 -9.375 12.0625 -9.375 10.0625 C-10.138125 9.77375 -10.90125 9.485 -11.6875 9.1875 C-14.375 8.0625 -14.375 8.0625 -17.375 6.0625 C-17.375 5.4025 -17.375 4.7425 -17.375 4.0625 C-18.365 4.0625 -19.355 4.0625 -20.375 4.0625 C-20.375 3.4025 -20.375 2.7425 -20.375 2.0625 C-21.02855469 1.82917969 -21.68210937 1.59585938 -22.35546875 1.35546875 C-26.31594071 -0.34041252 -29.95373003 -2.48418834 -33.6875 -4.625 C-62.06069308 -20.56573743 -96.44761348 -32.84222999 -129.375 -28.9375 C-130.35082031 -28.8240625 -131.32664063 -28.710625 -132.33203125 -28.59375 C-143.08428548 -26.99398685 -154.96595683 -22.79909952 -161.90234375 -14 C-163.07084718 -12.32006464 -164.22431211 -10.62968807 -165.375 -8.9375 C-166.035 -8.9375 -166.695 -8.9375 -167.375 -8.9375 C-167.06843615 -15.55927926 -165.63211277 -20.15875154 -162.375 -25.9375 C-161.715 -25.9375 -161.055 -25.9375 -160.375 -25.9375 C-160.375 -26.5975 -160.375 -27.2575 -160.375 -27.9375 C-159.715 -27.9375 -159.055 -27.9375 -158.375 -27.9375 C-158.12363281 -28.535625 -157.87226563 -29.13375 -157.61328125 -29.75 C-153.68128709 -36.69610955 -144.75577397 -39.07794021 -137.5859375 -41.17578125 C-89.94482545 -52.47750491 -37.59780362 -27.09723612 0 0 Z " fill="#CECFD0" transform="translate(311.375,221.9375)"/>
<path d="M0 0 C4.07173203 0.04470619 8.14219987 0.11509573 12.21313477 0.20751953 C13.59289735 0.2354389 14.97281124 0.25679511 16.3527832 0.27099609 C25.32234036 0.36873918 32.7986613 1.24748541 41 5 C41 5.66 41 6.32 41 7 C41.66 7 42.32 7 43 7 C43 7.66 43 8.32 43 9 C43.66 9 44.32 9 45 9 C49.15886125 16.51936967 50.46544652 23.28640514 48.3046875 31.7109375 C46.26137177 37.4287874 43.67653757 41.13677331 39 45 C38.34 45 37.68 45 37 45 C37 45.66 37 46.32 37 47 C29.81947541 50.48901845 23.9587799 51.54470737 16 51 C16 50.01 16 49.02 16 48 C17.4562545 47.32880451 18.91507867 46.66318193 20.375 46 C21.18710937 45.62875 21.99921875 45.2575 22.8359375 44.875 C25 44 25 44 27 44 C27 43.34 27 42.68 27 42 C27.66 42 28.32 42 29 42 C29.309375 41.05125 29.61875 40.1025 29.9375 39.125 C31 36 31 36 32 34 C32.71737234 26.76478756 32.93758556 20.54079794 28.40234375 14.5859375 C27.93957031 14.06257813 27.47679687 13.53921875 27 13 C26.29875 12.195625 25.5975 11.39125 24.875 10.5625 C20.47373457 8.17050792 15.94184581 8.17309442 11 8 C11 7.67 11 7.34 11 7 C14.3 7 17.6 7 21 7 C21 5.68 21 4.36 21 3 C14.07 2.67 7.14 2.34 0 2 C0 1.34 0 0.68 0 0 Z " fill="#C9C9CB" transform="translate(254,261)"/>
<path d="M0 0 C1.14202881 -0.00056396 2.28405762 -0.00112793 3.46069336 -0.00170898 C26.48228987 0.29478987 26.48228987 0.29478987 31.5625 5.375 C31.64950342 7.00972882 31.66951063 8.64814055 31.66015625 10.28515625 C31.65532227 11.76918945 31.65532227 11.76918945 31.65039062 13.28320312 C31.63782227 14.84458008 31.63782227 14.84458008 31.625 16.4375 C31.62048828 17.48228516 31.61597656 18.52707031 31.61132812 19.60351562 C31.59949913 22.1940666 31.58301689 24.78450559 31.5625 27.375 C29.9125 27.705 28.2625 28.035 26.5625 28.375 C26.32466797 27.48748047 26.32466797 27.48748047 26.08203125 26.58203125 C24.52046426 21.29340933 23.12515966 17.77272528 18.5625 14.375 C8.6503717 9.69647544 -1.58009498 7.40041775 -12.4375 10.12890625 C-17.17580598 11.97077824 -21.35160653 14.36434165 -25.4375 17.375 C-26.4275 16.715 -27.4175 16.055 -28.4375 15.375 C-28.4375 12.375 -28.4375 12.375 -26.4375 10.375 C-26.7675 9.715 -27.0975 9.055 -27.4375 8.375 C-28.0975 9.695 -28.7575 11.015 -29.4375 12.375 C-30.4275 12.045 -31.4175 11.715 -32.4375 11.375 C-32.4375 10.385 -32.4375 9.395 -32.4375 8.375 C-30.60965398 7.40624161 -28.77489059 6.45053127 -26.9375 5.5 C-25.40609375 4.69949219 -25.40609375 4.69949219 -23.84375 3.8828125 C-15.88939483 0.36173326 -8.60043398 -0.01065729 0 0 Z " fill="#CFD0D2" transform="translate(222.4375,204.625)"/>
<path d="M0 0 C1.1055189 0.93590504 2.20935453 1.87379858 3.3125 2.8125 C4.23482422 3.59560547 4.23482422 3.59560547 5.17578125 4.39453125 C7 6 7 6 8.54296875 7.63671875 C10.06935893 9.25492602 10.06935893 9.25492602 13 10 C13 10.66 13 11.32 13 12 C13.66 12.12375 14.32 12.2475 15 12.375 C18 13 18 13 21.3125 14.0625 C27.98708533 15.80538012 35.16051352 15.14940626 42 15 C42 18 42 18 40 20.1875 C39.34 20.785625 38.68 21.38375 38 22 C39.32 22.66 40.64 23.32 42 24 C37.6043999 24.11802706 33.20921714 24.18785559 28.8125 24.25 C26.97268555 24.30027344 26.97268555 24.30027344 25.09570312 24.3515625 C14.12392386 24.46735964 3.91042678 22.57827223 -5.3125 16.375 C-6.21613281 15.78460938 -7.11976563 15.19421875 -8.05078125 14.5859375 C-8.69402344 14.06257813 -9.33726562 13.53921875 -10 13 C-10 12.34 -10 11.68 -10 11 C-10.99 10.67 -11.98 10.34 -13 10 C-12.360625 9.71125 -11.72125 9.4225 -11.0625 9.125 C-8.84793921 8.17176549 -8.84793921 8.17176549 -8 6 C-1.88888889 4 -1.88888889 4 1 4 C0.67 2.68 0.34 1.36 0 0 Z " fill="#C9CBCD" transform="translate(196,277)"/>
<path d="M0 0 C1.6875 2.0625 1.6875 2.0625 3 4 C2.67 4.66 2.34 5.32 2 6 C2.66 6.33 3.32 6.66 4 7 C3.67 7.99 3.34 8.98 3 10 C1.35 10 -0.3 10 -2 10 C-2 10.66 -2 11.32 -2 12 C-3.25103516 12.43699219 -3.25103516 12.43699219 -4.52734375 12.8828125 C-14.74677987 16.60535624 -22.71783576 20.19465611 -28.80859375 29.4609375 C-29.20175781 29.96882813 -29.59492188 30.47671875 -30 31 C-30.66 31 -31.32 31 -32 31 C-31.69343615 24.37822074 -30.25711277 19.77874846 -27 14 C-26.34 14 -25.68 14 -25 14 C-25 13.34 -25 12.68 -25 12 C-24.34 12 -23.68 12 -23 12 C-22.75378906 11.40316406 -22.50757813 10.80632812 -22.25390625 10.19140625 C-18.84387119 4.23181226 -11.19281548 1.39656852 -4.9453125 -0.65234375 C-3 -1 -3 -1 0 0 Z " fill="#D0D0D2" transform="translate(176,182)"/>
<path d="M0 0 C0.99 0.66 1.98 1.32 3 2 C5.52869082 1.15521502 5.52869082 1.15521502 8 0 C8.99 0 9.98 0 11 0 C14.50444331 6.36214386 15.55271035 10.86090786 14 18 C11.69 18 9.38 18 7 18 C6.67 20.64 6.34 23.28 6 26 C5.34 26 4.68 26 4 26 C4 24.68 4 23.36 4 22 C3.34 22 2.68 22 2 22 C1.51787786 20.43840941 1.03944127 18.87568072 0.5625 17.3125 C0.29566406 16.44238281 0.02882813 15.57226562 -0.24609375 14.67578125 C-0.96344529 12.12974079 -1.517541 9.5996577 -2 7 C-2.66 7 -3.32 7 -4 7 C-4 5.68 -4 4.36 -4 3 C-3.34 3 -2.68 3 -2 3 C-1.34 2.01 -0.68 1.02 0 0 Z " fill="#D3D4D6" transform="translate(334,260)"/>
<path d="M0 0 C0.66 0 1.32 0 2 0 C4.44791191 3.67186786 4.29160394 5.74811835 4.4375 10.125 C4.9108671 19.5686736 7.50906055 26.44886849 11.9140625 34.73828125 C12.92117642 36.83583146 13.53227283 38.72892476 14 41 C5.95380002 38.01992594 1.31329002 27.71442649 -2.234375 20.484375 C-4.74783506 14.69248878 -5.73216302 9.29416905 -6 3 C-4.68 3 -3.36 3 -2 3 C-1.34 2.01 -0.68 1.02 0 0 Z " fill="#CBCDCF" transform="translate(136,199)"/>
<path d="M0 0 C1.80597656 0.01353516 1.80597656 0.01353516 3.6484375 0.02734375 C6.5991679 0.05076225 9.54947689 0.08356007 12.5 0.125 C12.5 0.455 12.5 0.785 12.5 1.125 C9.58365878 1.32002282 6.66720455 1.50629328 3.75 1.6875 C2.5125 1.77161133 2.5125 1.77161133 1.25 1.85742188 C0.05117187 1.92993164 0.05117187 1.92993164 -1.171875 2.00390625 C-1.9050293 2.0510376 -2.63818359 2.09816895 -3.39355469 2.14672852 C-5.58357226 2.12413793 -7.40487187 1.73987456 -9.5 1.125 C-9.17 2.445 -8.84 3.765 -8.5 5.125 C-9.82 5.455 -11.14 5.785 -12.5 6.125 C-12.5 6.785 -12.5 7.445 -12.5 8.125 C-11.84 8.455 -11.18 8.785 -10.5 9.125 C-11.15226562 9.36734375 -11.80453125 9.6096875 -12.4765625 9.859375 C-17.61213194 11.82876741 -22.06942895 13.8603687 -26.5 17.125 C-27.49 16.465 -28.48 15.805 -29.5 15.125 C-29.5 12.125 -29.5 12.125 -27.5 10.125 C-27.83 9.465 -28.16 8.805 -28.5 8.125 C-29.16 9.445 -29.82 10.765 -30.5 12.125 C-31.49 11.795 -32.48 11.465 -33.5 11.125 C-33.5 10.135 -33.5 9.145 -33.5 8.125 C-31.67215398 7.15624161 -29.83739059 6.20053127 -28 5.25 C-26.46859375 4.44949219 -26.46859375 4.44949219 -24.90625 3.6328125 C-16.53083222 -0.07465454 -9.04875505 -0.12926793 0 0 Z " fill="#CACBCD" transform="translate(223.5,204.875)"/>
<path d="M0 0 C4.81449408 0.48144941 7.60171741 0.8008587 12 3 C12 10.26 12 17.52 12 25 C10.35 25.33 8.7 25.66 7 26 C6.84144531 25.40832031 6.68289062 24.81664062 6.51953125 24.20703125 C4.40552274 17.04743338 1.1124282 13.30133836 -5 9 C-2.69 8.34 -0.38 7.68 2 7 C2.16687448 4.58354218 2.16687448 4.58354218 2 2 C1.34 1.34 0.68 0.68 0 0 Z " fill="#BEBFC1" transform="translate(242,207)"/>
<path d="M0 0 C0.89034986 2.49297962 1.21044954 3.55104099 0.0625 6 C-0.4634375 6.99 -0.4634375 6.99 -1 8 C-1 9.32 -1 10.64 -1 12 C-0.67 11.67 -0.34 11.34 0 11 C1.66617115 10.95936168 3.33388095 10.957279 5 11 C4.01 11.33 3.02 11.66 2 12 C2 12.66 2 13.32 2 14 C-9.93965634 20.68620755 -21.52507271 22.6794081 -35 22 C-35 21.34 -35 20.68 -35 20 C-33.7315625 19.72736328 -33.7315625 19.72736328 -32.4375 19.44921875 C-20.11061084 16.71769218 -8.86154887 13.67672721 -1.375 2.5 C-0.92125 1.675 -0.4675 0.85 0 0 Z " fill="#C0C2C4" transform="translate(357,298)"/>
<path d="M0 0 C6.48558067 1.46843336 6.48558067 1.46843336 8.875 3.9375 C10 6 10 6 11 9 C11.65129797 10.34090759 12.31513275 11.67592331 13 13 C11 14 11 14 7 14 C5.22590192 15.92022703 5.22590192 15.92022703 4 18 C1 17 1 17 -0.8125 15.375 C-2 13 -2 13 -1.1875 9.5 C-0.5996875 7.7675 -0.5996875 7.7675 0 6 C0 4.68 0 3.36 0 2 C0 1.34 0 0.68 0 0 Z M9 14 C9.99 14.495 9.99 14.495 11 15 C10.01 15.495 10.01 15.495 9 16 C9 15.34 9 14.68 9 14 Z " fill="#DBDCDF" transform="translate(340,225)"/>
<path d="M0 0 C0.33 1.32 0.66 2.64 1 4 C1.33 3.34 1.66 2.68 2 2 C2.66 2 3.32 2 4 2 C4 3.32 4 4.64 4 6 C4.66 6.33 5.32 6.66 6 7 C4.46163292 7.65365399 2.91911234 8.29753603 1.375 8.9375 C0.51648438 9.29714844 -0.34203125 9.65679687 -1.2265625 10.02734375 C-6.92659388 12.02636884 -12.41361693 12.13257051 -18.375 12.0625 C-19.11105469 12.05798828 -19.84710938 12.05347656 -20.60546875 12.04882812 C-22.40368158 12.03715142 -24.20185197 12.01922011 -26 12 C-26 11.34 -26 10.68 -26 10 C-25.03320312 9.85304688 -24.06640625 9.70609375 -23.0703125 9.5546875 C-14.58123404 8.13729313 -6.35239633 6.35239633 0 0 Z " fill="#B2B2B4" transform="translate(326,307)"/>
<path d="M0 0 C0.66 0.33 1.32 0.66 2 1 C0.81231727 2.18768273 -0.39079692 3.36073562 -1.625 4.5 C-3.22524154 5.90657595 -3.22524154 5.90657595 -3 8 C-7.35294118 12 -7.35294118 12 -11 12 C-11 12.66 -11 13.32 -11 14 C-9.02 14 -7.04 14 -5 14 C-6.09119608 17.27358823 -6.75639646 17.83094239 -9.375 19.875 C-12.3552106 22.31280008 -14.11118248 24.62001075 -16 28 C-16.66 28 -17.32 28 -18 28 C-17.69343615 21.37822074 -16.25711277 16.77874846 -13 11 C-12.34 11 -11.68 11 -11 11 C-11 10.34 -11 9.68 -11 9 C-10.34 9 -9.68 9 -9 9 C-8.814375 8.443125 -8.62875 7.88625 -8.4375 7.3125 C-6.33639286 3.93245808 -3.29334006 2.14859619 0 0 Z " fill="#B8B8B8" transform="translate(162,185)"/>
<path d="M0 0 C0.66 0.33 1.32 0.66 2 1 C2 1.99 2 2.98 2 4 C3.65 4.33 5.3 4.66 7 5 C7.33 4.01 7.66 3.02 8 2 C9.2685771 5.80573129 8.88817586 8.10569048 8 12 C5.9375 14.4375 5.9375 14.4375 4 16 C2.0625 15.25 2.0625 15.25 0 14 C-0.36162029 12.67405895 -0.69728039 11.34061543 -1 10 C-1.99 9.67 -2.98 9.34 -4 9 C-3.67 8.01 -3.34 7.02 -3 6 C-2.67 6.33 -2.34 6.66 -2 7 C-1.34 4.69 -0.68 2.38 0 0 Z " fill="#D5D7DA" transform="translate(317,206)"/>
<path d="M0 0 C1.32 1.32 2.64 2.64 4 4 C3.01 4.33 2.02 4.66 1 5 C0.26676204 7.01508358 0.26676204 7.01508358 0 9 C-0.66 9 -1.32 9 -2 9 C-2.26932521 13.65052872 -2.26932521 13.65052872 -1 18 C-4.43927579 16.7580393 -7.25207819 15.44259716 -10 13 C-10 12.34 -10 11.68 -10 11 C-10.99 10.67 -11.98 10.34 -13 10 C-12.360625 9.71125 -11.72125 9.4225 -11.0625 9.125 C-8.84793921 8.17176549 -8.84793921 8.17176549 -8 6 C-1.88888889 4 -1.88888889 4 1 4 C0.67 2.68 0.34 1.36 0 0 Z " fill="#BCBDC0" transform="translate(196,277)"/>
<path d="M0 0 C0.66 0.33 1.32 0.66 2 1 C2.680625 1.144375 3.36125 1.28875 4.0625 1.4375 C4.701875 1.623125 5.34125 1.80875 6 2 C6.33 2.66 6.66 3.32 7 4 C6.67 4.66 6.34 5.32 6 6 C6.66 6.66 7.32 7.32 8 8 C5.36 9.65 2.72 11.3 0 13 C-0.99 12.34 -1.98 11.68 -3 11 C-3 8 -3 8 -1 6 C-1.33 5.34 -1.66 4.68 -2 4 C-2.66 5.32 -3.32 6.64 -4 8 C-4.99 7.67 -5.98 7.34 -7 7 C-7 6.01 -7 5.02 -7 4 C-1.7265625 0.77734375 -1.7265625 0.77734375 0 0 Z " fill="#C7C7C9" transform="translate(197,209)"/>
<path d="M0 0 C0.53625 0.268125 1.0725 0.53625 1.625 0.8125 C1.625 1.4725 1.625 2.1325 1.625 2.8125 C0.965 2.8125 0.305 2.8125 -0.375 2.8125 C-0.045 3.8025 0.285 4.7925 0.625 5.8125 C-0.179375 6.43125 -0.98375 7.05 -1.8125 7.6875 C-4.41374519 9.55414041 -4.41374519 9.55414041 -5.375 11.8125 C-6.035 11.8125 -6.695 11.8125 -7.375 11.8125 C-7.375 12.8025 -7.375 13.7925 -7.375 14.8125 C-10.015 14.4825 -12.655 14.1525 -15.375 13.8125 C-15.375 13.1525 -15.375 12.4925 -15.375 11.8125 C-12.73607824 10.02944476 -10.40321137 8.82190379 -7.375 7.8125 C-7.705 6.8225 -8.035 5.8325 -8.375 4.8125 C-2.95961538 -0.23365385 -2.95961538 -0.23365385 0 0 Z " fill="#D7D7D7" transform="translate(166.375,185.1875)"/>
<path d="M0 0 C0.33 0.66 0.66 1.32 1 2 C0.67 2.66 0.34 3.32 0 4 C-0.66 4 -1.32 4 -2 4 C-0.6910428 7.12197478 -0.6910428 7.12197478 2 9 C1.67 8.01 1.34 7.02 1 6 C2.98 6 4.96 6 7 6 C7 6.66 7 7.32 7 8 C-0.18052459 11.48901845 -6.0412201 12.54470737 -14 12 C-14 11.01 -14 10.02 -14 9 C-12.5437455 8.32880451 -11.08492133 7.66318193 -9.625 7 C-8.81289063 6.62875 -8.00078125 6.2575 -7.1640625 5.875 C-5 5 -5 5 -3 5 C-3 4.34 -3 3.68 -3 3 C-2.34 3 -1.68 3 -1 3 C-0.67 2.01 -0.34 1.02 0 0 Z " fill="#AFAFAF" transform="translate(284,300)"/>
<path d="M0 0 C6.0546875 -0.1953125 6.0546875 -0.1953125 8 0 C8.66 0.66 9.32 1.32 10 2 C9.34 2.66 8.68 3.32 8 4 C7.3574765 6.06874034 7.3574765 6.06874034 7 8 C4.69 8.33 2.38 8.66 0 9 C0 9.66 0 10.32 0 11 C-1.32 10.34 -2.64 9.68 -4 9 C-4 8.01 -4 7.02 -4 6 C-3.34 6 -2.68 6 -2 6 C-1.34 4.02 -0.68 2.04 0 0 Z " fill="#DDDDDF" transform="translate(286,298)"/>
<path d="M0 0 C0.80050781 0.22042969 1.60101563 0.44085938 2.42578125 0.66796875 C3.23402344 0.88066406 4.04226563 1.09335938 4.875 1.3125 C5.79732422 1.58126953 5.79732422 1.58126953 6.73828125 1.85546875 C7.06828125 3.50546875 7.39828125 5.15546875 7.73828125 6.85546875 C6.93390625 7.14421875 6.12953125 7.43296875 5.30078125 7.73046875 C2.60563445 8.58809443 2.60563445 8.58809443 1.73828125 10.85546875 C-0.24171875 10.85546875 -2.22171875 10.85546875 -4.26171875 10.85546875 C-3.60171875 9.20546875 -2.94171875 7.55546875 -2.26171875 5.85546875 C-3.25171875 5.85546875 -4.24171875 5.85546875 -5.26171875 5.85546875 C-5.26171875 2.85546875 -5.26171875 2.85546875 -4.0546875 1.1171875 C-2.26171875 -0.14453125 -2.26171875 -0.14453125 0 0 Z " fill="#DCDDDF" transform="translate(295.26171875,214.14453125)"/>
<path d="M0 0 C0.33 0 0.66 0 1 0 C1.15855469 0.556875 1.31710938 1.11375 1.48046875 1.6875 C3.03549706 6.77355943 4.96692909 10.90834082 8.01171875 15.2734375 C9 17 9 17 9 20 C2.93213663 17.7526432 -0.75537736 11.28753318 -4 6 C-4 5.34 -4 4.68 -4 4 C-3.34 4 -2.68 4 -2 4 C-1.34 2.68 -0.68 1.36 0 0 Z " fill="#B6B6B6" transform="translate(141,220)"/>
<path d="M0 0 C3.73487777 0.4979837 5.81237635 0.87491756 9 3 C8.75 5.375 8.75 5.375 8 8 C5.02680997 9.99091661 2.93856796 10.20022194 -0.5625 9.75 C-1.70912109 9.61851562 -1.70912109 9.61851562 -2.87890625 9.484375 C-5 9 -5 9 -8 7 C-2.25 6 -2.25 6 0 6 C0 5.01 0 4.02 0 3 C0.66 3 1.32 3 2 3 C2 2.34 2 1.68 2 1 C1.34 0.67 0.68 0.34 0 0 Z " fill="#D2D3D6" transform="translate(236,206)"/>
<path d="M0 0 C0.33 0.99 0.66 1.98 1 3 C1.66 3.66 2.32 4.32 3 5 C-4.60298267 7.48260659 -12.10311193 7.18508331 -20 7 C-20 6.34 -20 5.68 -20 5 C-19.11957031 4.80664062 -18.23914063 4.61328125 -17.33203125 4.4140625 C-16.17058594 4.15367187 -15.00914062 3.89328125 -13.8125 3.625 C-12.66394531 3.36976563 -11.51539063 3.11453125 -10.33203125 2.8515625 C-6.89369885 1.97283277 -3.53100334 0 0 0 Z " fill="#AEAEB0" transform="translate(342,313)"/>
<path d="M0 0 C11.22 0 22.44 0 34 0 C33.67 0.99 33.34 1.98 33 3 C33 2.34 33 1.68 33 1 C24.75 1 16.5 1 8 1 C8.33 1.99 8.66 2.98 9 4 C5.79937313 5.60031344 3.27728194 4.03173691 0 3 C0 2.01 0 1.02 0 0 Z " fill="#7C7C7C" transform="translate(230,254)"/>
<path d="M0 0 C6.75 -0.125 6.75 -0.125 9 1 C9 2.98 9 4.96 9 7 C6.28220011 8.35889995 4.94031693 7.66825385 2 7 C0.00102872 6.66055205 -1.99875639 6.32578384 -4 6 C-3.525625 5.566875 -3.05125 5.13375 -2.5625 4.6875 C-0.76313043 2.97690387 -0.76313043 2.97690387 0 0 Z " fill="#DDDEE0" transform="translate(229,206)"/>
<path d="M0 0 C0.66 0.33 1.32 0.66 2 1 C-0.475 2.485 -0.475 2.485 -3 4 C-0.03 4.495 -0.03 4.495 3 5 C3 5.33 3 5.66 3 6 C-1.85729645 6.97299156 -6.4500625 7.12038805 -11.375 7.0625 C-12.11105469 7.05798828 -12.84710938 7.05347656 -13.60546875 7.04882812 C-15.40368158 7.03715142 -17.20185197 7.01922011 -19 7 C-19 6.34 -19 5.68 -19 5 C-17.96359375 4.80664062 -16.9271875 4.61328125 -15.859375 4.4140625 C-14.48952391 4.15135133 -13.11973548 3.88831329 -11.75 3.625 C-11.06808594 3.49867188 -10.38617188 3.37234375 -9.68359375 3.2421875 C-6.13198319 2.55255438 -3.20646774 1.63377166 0 0 Z " fill="#868686" transform="translate(319,312)"/>
<path d="M0 0 C0.33 0 0.66 0 1 0 C1 7.26 1 14.52 1 22 C0.01 21.67 -0.98 21.34 -2 21 C-4.16622837 14.5013149 -2.59360425 6.22465021 0 0 Z " fill="#999A9A" transform="translate(253,210)"/>
<path d="M0 0 C2.1385485 2.1385485 2.42655063 3.13275314 3 6 C2.34 6 1.68 6 1 6 C1 7.32 1 8.64 1 10 C-3.75 8.125 -3.75 8.125 -6 7 C-6 6.34 -6 5.68 -6 5 C-6.99 4.67 -7.98 4.34 -9 4 C-5.25 2.875 -5.25 2.875 -3 4 C-2.67 3.01 -2.34 2.02 -2 1 C-1.34 0.67 -0.68 0.34 0 0 Z " fill="#C1C2C5" transform="translate(300,221)"/>
<path d="M0 0 C1.134375 0.020625 2.26875 0.04125 3.4375 0.0625 C4.59587626 4.11681692 4.27441257 6.28062119 2.4375 10.0625 C1.7775 10.0625 1.1175 10.0625 0.4375 10.0625 C0.4375 9.4025 0.4375 8.7425 0.4375 8.0625 C-0.5525 7.7325 -1.5425 7.4025 -2.5625 7.0625 C-2.5625 6.0725 -2.5625 5.0825 -2.5625 4.0625 C-3.2225 3.0725 -3.8825 2.0825 -4.5625 1.0625 C-3.5625 0.0625 -3.5625 0.0625 0 0 Z " fill="#DEDFE0" transform="translate(179.5625,180.9375)"/>
<path d="M0 0 C1.16337891 0.00322266 2.32675781 0.00644531 3.52539062 0.00976562 C4.74033203 0.01814453 5.95527344 0.02652344 7.20703125 0.03515625 C8.43357422 0.03966797 9.66011719 0.04417969 10.92382812 0.04882812 C13.95577793 0.0606256 16.98763031 0.07708704 20.01953125 0.09765625 C20.01953125 0.42765625 20.01953125 0.75765625 20.01953125 1.09765625 C17.10319003 1.29267907 14.1867358 1.47894953 11.26953125 1.66015625 C10.03203125 1.74426758 10.03203125 1.74426758 8.76953125 1.83007812 C7.57070312 1.90258789 7.57070312 1.90258789 6.34765625 1.9765625 C5.61450195 2.02369385 4.88134766 2.0708252 4.12597656 2.11938477 C1.93595899 2.09679418 0.11465938 1.71253081 -1.98046875 1.09765625 C-1.79484375 1.73703125 -1.60921875 2.37640625 -1.41796875 3.03515625 C-1.27359375 3.71578125 -1.12921875 4.39640625 -0.98046875 5.09765625 C-1.98046875 6.09765625 -1.98046875 6.09765625 -4.54296875 6.16015625 C-5.74953125 6.12921875 -5.74953125 6.12921875 -6.98046875 6.09765625 C-6.32046875 5.76765625 -5.66046875 5.43765625 -4.98046875 5.09765625 C-4.98046875 4.43765625 -4.98046875 3.77765625 -4.98046875 3.09765625 C-6.30046875 2.43765625 -7.62046875 1.77765625 -8.98046875 1.09765625 C-5.74295197 0.01848399 -3.40295104 -0.01659976 0 0 Z " fill="#909091" transform="translate(215.98046875,204.90234375)"/>
<path d="M0 0 C3.69876091 1.37287342 6.9514476 3.06355453 10.3125 5.125 C11.19550781 5.66382813 12.07851563 6.20265625 12.98828125 6.7578125 C13.65214844 7.16773438 14.31601562 7.57765625 15 8 C14.01 8.66 13.02 9.32 12 10 C8.8125 9.125 8.8125 9.125 6 8 C6 8.66 6 9.32 6 10 C5.34 10 4.68 10 4 10 C3.4375 8.0625 3.4375 8.0625 3 6 C3.33 5.67 3.66 5.34 4 5 C3.34 4.360625 2.68 3.72125 2 3.0625 C0 1 0 1 0 0 Z " fill="#B8B8B9" transform="translate(287,207)"/>
<path d="M0 0 C1.32 0.33 2.64 0.66 4 1 C3.34 1 2.68 1 2 1 C1.67 2.98 1.34 4.96 1 7 C0.01 7.33 -0.98 7.66 -2 8 C-2.33 8.66 -2.66 9.32 -3 10 C-4.98 7.03 -6.96 4.06 -9 1 C-7.02 1.99 -7.02 1.99 -5 3 C-4.01 3 -3.02 3 -2 3 C-1.34 2.01 -0.68 1.02 0 0 Z " fill="#BABBBE" transform="translate(347,238)"/>
<path d="M0 0 C0.99 0.33 1.98 0.66 3 1 C2.67 1.99 2.34 2.98 2 4 C2.99 4.33 3.98 4.66 5 5 C7.78637633 9.1795645 6.79562512 11.14668677 6 16 C1.96190932 11.38503922 0 6.07147123 0 0 Z " fill="#C6C6C8" transform="translate(131,208)"/>
<path d="M0 0 C2.68092691 2.68092691 2.38670257 4.39167363 2.625 8.125 C2.69976562 9.22070312 2.77453125 10.31640625 2.8515625 11.4453125 C2.92503906 12.70988281 2.92503906 12.70988281 3 14 C1.68 14.33 0.36 14.66 -1 15 C-0.979375 13.9275 -0.95875 12.855 -0.9375 11.75 C-0.83459411 8.22191619 -0.83459411 8.22191619 -1.625 5.8125 C-2.13936245 3.32641484 -1.28423608 2.11521237 0 0 Z " fill="#D3D3D5" transform="translate(138,209)"/>
<path d="M0 0 C0 0.99 0 1.98 0 3 C-5.14285714 7 -5.14285714 7 -9 7 C-8.39816251 4.97954558 -7.72693904 2.97888961 -7 1 C-4.53721199 -0.231394 -2.7204945 -0.07159196 0 0 Z " fill="#DBDCDF" transform="translate(188,221)"/>
<path d="M0 0 C2.9719385 1.12451727 5.33440687 2.22293791 8 4 C7.1875 5.9375 7.1875 5.9375 6 8 C5.01 8.33 4.02 8.66 3 9 C3 8.34 3 7.68 3 7 C2.34 7 1.68 7 1 7 C0.34 5.02 -0.32 3.04 -1 1 C-0.67 0.67 -0.34 0.34 0 0 Z " fill="#B6B6B8" transform="translate(318,203)"/>
<path d="M0 0 C-1.485 2.475 -1.485 2.475 -3 5 C-3.99 4.67 -4.98 4.34 -6 4 C-6.33 3.34 -6.66 2.68 -7 2 C-9.12576782 1.53348793 -9.12576782 1.53348793 -11.5625 1.375 C-12.38878906 1.30023438 -13.21507812 1.22546875 -14.06640625 1.1484375 C-14.70449219 1.09945313 -15.34257812 1.05046875 -16 1 C-16 0.67 -16 0.34 -16 0 C-14.27185839 -0.19672365 -12.54240803 -0.38196799 -10.8125 -0.5625 C-9.84957031 -0.66691406 -8.88664063 -0.77132813 -7.89453125 -0.87890625 C-5.05766623 -0.99758751 -2.74576329 -0.67765639 0 0 Z " fill="#B0B1B3" transform="translate(239,293)"/>
<path d="M0 0 C0.33 0.66 0.66 1.32 1 2 C1.99 1.67 2.98 1.34 4 1 C4 2.32 4 3.64 4 5 C4.66 5 5.32 5 6 5 C6.6875 7.25 6.6875 7.25 7 10 C5.51953125 12.171875 5.51953125 12.171875 4 14 C3.5196682 12.41701974 3.04078388 10.83360022 2.5625 9.25 C2.29566406 8.36828125 2.02882813 7.4865625 1.75390625 6.578125 C1.11531506 4.39434165 0.53224167 2.21164502 0 0 Z " fill="#AEAEB0" transform="translate(332,268)"/>
<path d="M0 0 C2 1 2 1 4 4 C2.02 4.99 2.02 4.99 0 6 C-0.66 5.34 -1.32 4.68 -2 4 C-2.66 5.32 -3.32 6.64 -4 8 C-4.99 7.67 -5.98 7.34 -7 7 C-7 6.01 -7 5.02 -7 4 C-1.7265625 0.77734375 -1.7265625 0.77734375 0 0 Z " fill="#C0C0C1" transform="translate(197,209)"/>
<path d="M0 0 C0.33 1.32 0.66 2.64 1 4 C-7.19256018 4.4726477 -7.19256018 4.4726477 -10.5625 2.5 C-11.036875 2.005 -11.51125 1.51 -12 1 C-8.0186217 -0.3271261 -4.14954773 -0.06915913 0 0 Z " fill="#E0DFE3" transform="translate(274,264)"/>
<path d="M0 0 C1.95903745 0.47627975 3.91721097 0.95611423 5.875 1.4375 C6.96554688 1.70433594 8.05609375 1.97117188 9.1796875 2.24609375 C12 3 12 3 14 4 C13.67 4.99 13.34 5.98 13 7 C10.03 6.67 7.06 6.34 4 6 C4.33 4.68 4.66 3.36 5 2 C3.35 1.67 1.7 1.34 0 1 C0 0.67 0 0.34 0 0 Z " fill="#BABABA" transform="translate(235,185)"/>
<path d="M0 0 C0.33 0.66 0.66 1.32 1 2 C2.98 1.67 4.96 1.34 7 1 C6.34 2.98 5.68 4.96 5 7 C4.01 7 3.02 7 2 7 C2 5.68 2 4.36 2 3 C1.34 3 0.68 3 0 3 C-0.33 3.99 -0.66 4.98 -1 6 C-1.33 5.01 -1.66 4.02 -2 3 C-1.34 2.01 -0.68 1.02 0 0 Z " fill="#D3D4D6" transform="translate(328,306)"/>
<path d="M0 0 C0.8353125 0.37125 0.8353125 0.37125 1.6875 0.75 C1.6875 1.41 1.6875 2.07 1.6875 2.75 C0.6975 2.75 -0.2925 2.75 -1.3125 2.75 C-1.6425 3.74 -1.9725 4.73 -2.3125 5.75 C-3.9625 6.08 -5.6125 6.41 -7.3125 6.75 C-7.3125 5.76 -7.3125 4.77 -7.3125 3.75 C-3.21493902 -0.34756098 -3.21493902 -0.34756098 0 0 Z " fill="#E0E0E2" transform="translate(166.3125,185.25)"/>
<path d="M0 0 C0.66 1.98 1.32 3.96 2 6 C0 8 0 8 -2 9 C-4.00800456 8.71887936 -6.01014051 8.38932033 -8 8 C-8 7.67 -8 7.34 -8 7 C-6.02 7 -4.04 7 -2 7 C-2.34786708 5.02463255 -2.34786708 5.02463255 -3 3 C-3.66 2.67 -4.32 2.34 -5 2 C-2 0 -2 0 0 0 Z " fill="#B9BABD" transform="translate(230,168)"/>
<path d="M0 0 C1.51400391 0.01740234 1.51400391 0.01740234 3.05859375 0.03515625 C4.07050781 0.04417969 5.08242188 0.05320312 6.125 0.0625 C7.29869141 0.07990234 7.29869141 0.07990234 8.49609375 0.09765625 C8.49609375 1.08765625 8.49609375 2.07765625 8.49609375 3.09765625 C7.05901285 3.15188572 5.62133913 3.19055348 4.18359375 3.22265625 C3.38308594 3.24585938 2.58257812 3.2690625 1.7578125 3.29296875 C-0.50390625 3.09765625 -0.50390625 3.09765625 -3.50390625 1.09765625 C-2.50390625 0.09765625 -2.50390625 0.09765625 0 0 Z " fill="#CACACB" transform="translate(268.50390625,346.90234375)"/>
<path d="M0 0 C0.33 0.99 0.66 1.98 1 3 C2.32 3.99 3.64 4.98 5 6 C1.7 6.33 -1.6 6.66 -5 7 C-3.75023244 3.34683329 -3.32901247 2.21934164 0 0 Z " fill="#B7B8B9" transform="translate(346,310)"/>
<path d="M0 0 C2.31 0.66 4.62 1.32 7 2 C4.3139714 3.79068573 2.3373411 4.66055791 -0.6875 5.625 C-1.49574219 5.88539063 -2.30398437 6.14578125 -3.13671875 6.4140625 C-3.75160156 6.60742188 -4.36648437 6.80078125 -5 7 C-5 6.34 -5 5.68 -5 5 C-4.34 5 -3.68 5 -3 5 C-2.67 4.01 -2.34 3.02 -2 2 C-1.34 2 -0.68 2 0 2 C0 1.34 0 0.68 0 0 Z " fill="#B4B4B4" transform="translate(164,192)"/>
<path d="M0 0 C0.66 0 1.32 0 2 0 C3.2062252 3.61867559 3.10816918 6.92506251 3.0625 10.6875 C3.05798828 11.38939453 3.05347656 12.09128906 3.04882812 12.81445312 C3.03706927 14.54300538 3.01913454 16.27151365 3 18 C2.67 18 2.34 18 2 18 C1.67 14.37 1.34 10.74 1 7 C0.01 7.495 0.01 7.495 -1 8 C-0.67 5.36 -0.34 2.72 0 0 Z " fill="#C5C5C7" transform="translate(348,273)"/>
<path d="M0 0 C0.66 0 1.32 0 2 0 C2 0.66 2 1.32 2 2 C2.66 2.33 3.32 2.66 4 3 C4.33 3.99 4.66 4.98 5 6 C6.49985609 7.66710346 6.49985609 7.66710346 8 9 C7.01 9.495 7.01 9.495 6 10 C6 9.34 6 8.68 6 8 C5.2575 7.7525 4.515 7.505 3.75 7.25 C0.79875938 5.90852699 -0.84814974 4.39094474 -3 2 C-2.34 2 -1.68 2 -1 2 C-0.67 1.34 -0.34 0.68 0 0 Z " fill="#9FA0A2" transform="translate(309,209)"/>
<path d="M0 0 C0 3.96 0 7.92 0 12 C-0.66 12 -1.32 12 -2 12 C-3.20272819 9.59454362 -3.10071472 8.05003047 -3.0625 5.375 C-3.05347656 4.55773437 -3.04445313 3.74046875 -3.03515625 2.8984375 C-3.02355469 2.27195312 -3.01195312 1.64546875 -3 1 C-1 0 -1 0 0 0 Z " fill="#9FA0A1" transform="translate(375,276)"/>
<path d="M0 0 C2.05078125 0.03255208 4.1015625 0.06510417 6.15234375 0.09765625 C6.15234375 1.08765625 6.15234375 2.07765625 6.15234375 3.09765625 C4.72921875 3.28328125 4.72921875 3.28328125 3.27734375 3.47265625 C0.06567184 3.81452802 0.06567184 3.81452802 -1.84765625 6.09765625 C-2.22984392 4.44150968 -2.56160727 2.77308601 -2.84765625 1.09765625 C-1.84765625 0.09765625 -1.84765625 0.09765625 0 0 Z " fill="#B0B0B1" transform="translate(256.84765625,254.90234375)"/>
<path d="M0 0 C0.66 0 1.32 0 2 0 C2.33 0.66 2.66 1.32 3 2 C3.66 1.34 4.32 0.68 5 0 C9 5.625 9 5.625 9 9 C4.71930097 7.41455592 2.70478088 4.5312417 0 1 C0 0.67 0 0.34 0 0 Z " fill="#787878" transform="translate(141,231)"/>
<path d="M0 0 C1.32 0 2.64 0 4 0 C4.33 2.97 4.66 5.94 5 9 C4.34 9 3.68 9 3 9 C3 8.34 3 7.68 3 7 C2.34 7 1.68 7 1 7 C1 6.34 1 5.68 1 5 C0.34 4.67 -0.32 4.34 -1 4 C-0.67 2.68 -0.34 1.36 0 0 Z " fill="#BDBFC2" transform="translate(327,223)"/>
<path d="M0 0 C0 0.66 0 1.32 0 2 C-2.76452033 3.38226016 -5.0461363 3.09525387 -8.125 3.0625 C-9.22070312 3.05347656 -10.31640625 3.04445313 -11.4453125 3.03515625 C-12.70988281 3.01775391 -12.70988281 3.01775391 -14 3 C-14 2.34 -14 1.68 -14 1 C-12.22932584 0.83165067 -10.45845388 0.66538091 -8.6875 0.5 C-7.70136719 0.4071875 -6.71523438 0.314375 -5.69921875 0.21875 C-3 0 -3 0 0 0 Z " fill="#DADADA" transform="translate(314,316)"/>
<path d="M0 0 C-1.50223584 4.20626034 -4.28550034 5.73900021 -8 8 C-7.63487253 5.2980567 -7.30130763 3.41609148 -5.6875 1.1875 C-4 0 -4 0 0 0 Z " fill="#B8BABC" transform="translate(155,179)"/>
<path d="M0 0 C3.3 0.33 6.6 0.66 10 1 C10 1.33 10 1.66 10 2 C9.40832031 2.12117187 8.81664062 2.24234375 8.20703125 2.3671875 C4.70762347 3.10931313 1.44001519 3.8182546 -1.875 5.1875 C-4 6 -4 6 -7 5 C-6.34 5 -5.68 5 -5 5 C-5 4.34 -5 3.68 -5 3 C-3.35 2.34 -1.7 1.68 0 1 C0 0.67 0 0.34 0 0 Z " fill="#88888A" transform="translate(167,172)"/>
<path d="M0 0 C1.32 0 2.64 0 4 0 C4.042721 1.66611905 4.04063832 3.33382885 4 5 C3.67 5.33 3.34 5.66 3 6 C2.76807135 7.51469448 2.58784762 9.03754562 2.4375 10.5625 C2.35371094 11.38878906 2.26992187 12.21507812 2.18359375 13.06640625 C2.12300781 13.70449219 2.06242188 14.34257812 2 15 C1.67 15 1.34 15 1 15 C0.67 10.05 0.34 5.1 0 0 Z " fill="#E4E6E5" transform="translate(249,210)"/>
<path d="M0 0 C0.99 0.99 1.98 1.98 3 3 C1.125 7.75 1.125 7.75 0 10 C-0.66 10 -1.32 10 -2 10 C-1.85950482 8.52031676 -1.71245174 7.04125484 -1.5625 5.5625 C-1.48128906 4.73878906 -1.40007812 3.91507813 -1.31640625 3.06640625 C-1 1 -1 1 0 0 Z " fill="#919191" transform="translate(146,203)"/>
<path d="M0 0 C0 0.66 0 1.32 0 2 C-7.92 2.495 -7.92 2.495 -16 3 C-16 2.67 -16 2.34 -16 2 C-10.20377279 -0.32637691 -6.13909603 -1.43680971 0 0 Z " fill="#9D9E9F" transform="translate(190,190)"/>
<path d="M0 0 C2.64 0.99 5.28 1.98 8 3 C5 5 5 5 1 5 C0.67 3.35 0.34 1.7 0 0 Z M-3 2 C-2.01 2.33 -1.02 2.66 0 3 C-0.33 3.99 -0.66 4.98 -1 6 C-1.66 4.68 -2.32 3.36 -3 2 Z " fill="#C3C4C5" transform="translate(277,179)"/>
<path d="M0 0 C0.66 0 1.32 0 2 0 C3.13016601 5.02296004 2.77916092 8.97874074 2 14 C1.01 13.67 0.02 13.34 -1 13 C-0.835 11.783125 -0.67 10.56625 -0.5 9.3125 C-0.10545459 6.18392164 0.09869725 3.15831196 0 0 Z " fill="#E5E6E8" transform="translate(131,189)"/>
<path d="M0 0 C0.33 0 0.66 0 1 0 C1.07347656 1.37285156 1.07347656 1.37285156 1.1484375 2.7734375 C1.22320312 3.96195312 1.29796875 5.15046875 1.375 6.375 C1.44460938 7.55835938 1.51421875 8.74171875 1.5859375 9.9609375 C1.70217346 13.10562319 1.70217346 13.10562319 4 15 C3.01 15.33 2.02 15.66 1 16 C0.34 15.67 -0.32 15.34 -1 15 C-1.33 15.66 -1.66 16.32 -2 17 C-1.34 11.39 -0.68 5.78 0 0 Z " fill="#7C7C7D" transform="translate(287,283)"/>
<path d="M0 0 C0.78761719 0.09667969 1.57523438 0.19335938 2.38671875 0.29296875 C3.02222656 0.46441406 3.65773437 0.63585937 4.3125 0.8125 C4.6425 1.4725 4.9725 2.1325 5.3125 2.8125 C0.6925 2.8125 -3.9275 2.8125 -8.6875 2.8125 C-4.15849768 -0.58425174 -4.15849768 -0.58425174 0 0 Z " fill="#E4E6E5" transform="translate(215.6875,181.1875)"/>
<path d="M0 0 C0 0.66 0 1.32 0 2 C-2.88211302 2.96070434 -4.69850044 3.10581883 -7.6875 3.0625 C-8.89986328 3.04896484 -8.89986328 3.04896484 -10.13671875 3.03515625 C-11.05904297 3.01775391 -11.05904297 3.01775391 -12 3 C-11.67 2.34 -11.34 1.68 -11 1 C-7.318488 -0.05186057 -3.80944893 -0.08859184 0 0 Z " fill="#D9DADE" transform="translate(202,168)"/>
<path d="M0 0 C0.99 0.33 1.98 0.66 3 1 C3 2.32 3 3.64 3 5 C1.02 5.66 -0.96 6.32 -3 7 C-3.66 6.34 -4.32 5.68 -5 5 C-4.01 4.34 -3.02 3.68 -2 3 C-1.34 3.33 -0.68 3.66 0 4 C0 2.68 0 1.36 0 0 Z " fill="#DADBDE" transform="translate(359,304)"/>
<path d="M0 0 C0.66 0.66 1.32 1.32 2 2 C0.08864614 5.53600465 -1.62642766 7.78972846 -5 10 C-4.37240135 7.07120629 -3.41377341 4.63904371 -2 2 C-1.34 2 -0.68 2 0 2 C0 1.34 0 0.68 0 0 Z " fill="#B0B1B4" transform="translate(298,295)"/>
<path d="M0 0 C2.55803184 3.83704776 4.34505724 7.75712791 3.625 12.4375 C3.41875 12.953125 3.2125 13.46875 3 14 C2.34 13.67 1.68 13.34 1 13 C1.04125 12.278125 1.0825 11.55625 1.125 10.8125 C1.15508904 7.9634211 1.15508904 7.9634211 -0.0625 5.375 C-1 3 -1 3 0 0 Z " fill="#A4A4A6" transform="translate(370,262)"/>
<path d="M0 0 C-2.0072908 3.0109362 -2.83884224 3.63016497 -6 5 C-6.33 4.34 -6.66 3.68 -7 3 C-9.52733235 2.34444881 -9.52733235 2.34444881 -12 2 C-12 1.67 -12 1.34 -12 1 C-7.95858806 0.36605303 -4.0934693 -0.12404452 0 0 Z " fill="#A9A9A9" transform="translate(189,179)"/>
<path d="M0 0 C-1.0625 1.5 -1.0625 1.5 -3 3 C-6.6875 3.1875 -6.6875 3.1875 -10 3 C-7.00991906 -1.48512141 -4.87831759 -1.18661779 0 0 Z " fill="#E0E0E1" transform="translate(325,314)"/>
<path d="M0 0 C0.33 0 0.66 0 1 0 C1.33 5.28 1.66 10.56 2 16 C1.34 16.33 0.68 16.66 0 17 C-0.66 16.67 -1.32 16.34 -2 16 C-1.34 10.72 -0.68 5.44 0 0 Z " fill="#777879" transform="translate(188,244)"/>
<path d="M0 0 C0.33 0.99 0.66 1.98 1 3 C0.01 4.485 0.01 4.485 -1 6 C-0.34 6 0.32 6 1 6 C0.67 6.99 0.34 7.98 0 9 C-2.0625 9.6875 -2.0625 9.6875 -4 10 C-3.43454163 6.04179141 -2.19097652 3.3340947 0 0 Z " fill="#BABBBD" transform="translate(180,222)"/>
<path d="M0 0 C0.33 0 0.66 0 1 0 C1.66 2.64 2.32 5.28 3 8 C0.69 7.34 -1.62 6.68 -4 6 C-4 5.34 -4 4.68 -4 4 C-3.34 4 -2.68 4 -2 4 C-1.34 2.68 -0.68 1.36 0 0 Z " fill="#AEAEAE" transform="translate(141,220)"/>
<path d="M0 0 C0.66 0 1.32 0 2 0 C2.33 0.99 2.66 1.98 3 3 C3.66 3.66 4.32 4.32 5 5 C2.69 5.33 0.38 5.66 -2 6 C-1.34 5.67 -0.68 5.34 0 5 C0 4.34 0 3.68 0 3 C-1.65 3 -3.3 3 -5 3 C-4.360625 2.690625 -3.72125 2.38125 -3.0625 2.0625 C-1.06389179 1.1654837 -1.06389179 1.1654837 0 0 Z " fill="#8F9091" transform="translate(340,313)"/>
<path d="M0 0 C0.66 0.33 1.32 0.66 2 1 C1.67 3.97 1.34 6.94 1 10 C0.34 10 -0.32 10 -1 10 C-2.23076923 4.58461538 -2.23076923 4.58461538 -1.0625 1.625 C-0.5365625 0.820625 -0.5365625 0.820625 0 0 Z " fill="#E3E4E6" transform="translate(339,276)"/>
<path d="M0 0 C4 0 4 0 6 1 C6.625 3.0625 6.625 3.0625 7 5 C5.68 5.33 4.36 5.66 3 6 C2.01 4.02 1.02 2.04 0 0 Z " fill="#ABACAD" transform="translate(325,257)"/>
<path d="M0 0 C0.99 0.99 1.98 1.98 3 3 C2.67 3.66 2.34 4.32 2 5 C1.34 5 0.68 5 0 5 C0.33 6.32 0.66 7.64 1 9 C0.34 9 -0.32 9 -1 9 C-1 8.34 -1 7.68 -1 7 C-1.99 7 -2.98 7 -4 7 C-4 6.34 -4 5.68 -4 5 C-3.01 4.67 -2.02 4.34 -1 4 C-0.26676204 1.98491642 -0.26676204 1.98491642 0 0 Z " fill="#DEDEE0" transform="translate(194,212)"/>
<path d="M0 0 C0.99 0.33 1.98 0.66 3 1 C2.67 1.99 2.34 2.98 2 4 C2.99 4.33 3.98 4.66 5 5 C4.34 6.65 3.68 8.3 3 10 C0.70366176 6.55549263 0.45983515 4.06187717 0 0 Z " fill="#A9A9AA" transform="translate(131,208)"/>
<path d="M0 0 C3.63 1.65 7.26 3.3 11 5 C10.67 5.66 10.34 6.32 10 7 C8.68 7 7.36 7 6 7 C6 6.01 6 5.02 6 4 C4.35 3.67 2.7 3.34 1 3 C0.67 2.01 0.34 1.02 0 0 Z " fill="#98999A" transform="translate(286,183)"/>
<path d="M0 0 C0.33 0 0.66 0 1 0 C1 1.65 1 3.3 1 5 C1.66 5 2.32 5 3 5 C3 6.98 3 8.96 3 11 C2.01 10.34 1.02 9.68 0 9 C-0.29296875 6.8359375 -0.29296875 6.8359375 -0.1875 4.375 C-0.16042969 3.55773437 -0.13335937 2.74046875 -0.10546875 1.8984375 C-0.05326172 0.95871094 -0.05326172 0.95871094 0 0 Z " fill="#DFE1E3" transform="translate(262,331)"/>
<path d="M0 0 C1.0625 1.875 1.0625 1.875 2 4 C1.67 4.66 1.34 5.32 1 6 C0.01 6 -0.98 6 -2 6 C-1.125 1.125 -1.125 1.125 0 0 Z M3 0 C3.33 0.99 3.66 1.98 4 3 C3.34 3 2.68 3 2 3 C2.33 2.01 2.66 1.02 3 0 Z " fill="#BBBCBE" transform="translate(331,302)"/>
<path d="M0 0 C0.93065133 2.60582371 1.14917407 3.64198224 0.0625 6.25 C-0.4634375 7.11625 -0.4634375 7.11625 -1 8 C-1.99 7.67 -2.98 7.34 -4 7 C-2.68 4.69 -1.36 2.38 0 0 Z " fill="#ABACAF" transform="translate(357,298)"/>
<path d="M0 0 C0.66 0.66 1.32 1.32 2 2 C1.625 5.625 1.625 5.625 1 9 C0.01 8.67 -0.98 8.34 -2 8 C-2 6.68 -2 5.36 -2 4 C-1.34 3.67 -0.68 3.34 0 3 C0 2.01 0 1.02 0 0 Z " fill="#B9BABD" transform="translate(372,286)"/>
<path d="M0 0 C0.99 0.33 1.98 0.66 3 1 C3.33 2.65 3.66 4.3 4 6 C3.01 6 2.02 6 1 6 C0 5 0 5 -0.0625 2.4375 C-0.041875 1.633125 -0.02125 0.82875 0 0 Z " fill="#CECECE" transform="translate(147,200)"/>
<path d="M0 0 C0.33 0.99 0.66 1.98 1 3 C-1.31 3 -3.62 3 -6 3 C-6.33 2.34 -6.66 1.68 -7 1 C-3.375 -1.125 -3.375 -1.125 0 0 Z " fill="#E0E1E1" transform="translate(239,195)"/>
<path d="M0 0 C0.99 0 1.98 0 3 0 C3 2.31 3 4.62 3 7 C2.01 7.33 1.02 7.66 0 8 C0 5.36 0 2.72 0 0 Z " fill="#ACACAD" transform="translate(129,194)"/>
<path d="M0 0 C0.80824219 0.10183594 1.61648437 0.20367187 2.44921875 0.30859375 C3.06410156 0.39238281 3.67898437 0.47617188 4.3125 0.5625 C4.3125 0.8925 4.3125 1.2225 4.3125 1.5625 C-1.6275 2.0575 -1.6275 2.0575 -7.6875 2.5625 C-7.6875 1.9025 -7.6875 1.2425 -7.6875 0.5625 C-4.59271121 -0.46909626 -3.16118607 -0.41232862 0 0 Z " fill="#DFE0E1" transform="translate(218.6875,210.4375)"/>
<path d="M0 0 C3.37503669 1.1858237 5.64722731 2.27573689 8 5 C5.125 4.75 5.125 4.75 2 4 C0.625 1.9375 0.625 1.9375 0 0 Z " fill="#A2A2A2" transform="translate(287,207)"/>
<path d="M0 0 C0.99 0 1.98 0 3 0 C3 0.66 3 1.32 3 2 C4.65 2.33 6.3 2.66 8 3 C6.68 3.99 5.36 4.98 4 6 C3.34 5.34 2.68 4.68 2 4 C2 3.01 2 2.02 2 1 C1.34 0.67 0.68 0.34 0 0 Z " fill="#959696" transform="translate(206,287)"/>
<path d="M0 0 C-0.33 2.97 -0.66 5.94 -1 9 C-3.1519437 5.77208445 -3.20086443 4.71599191 -3 1 C-1 0 -1 0 0 0 Z " fill="#BCBCBF" transform="translate(176,264)"/>
<path d="M0 0 C0.66 0.33 1.32 0.66 2 1 C1.34 2.65 0.68 4.3 0 6 C-1.32 6 -2.64 6 -4 6 C-3.34 5.01 -2.68 4.02 -2 3 C-1.34 3 -0.68 3 0 3 C0 2.01 0 1.02 0 0 Z " fill="#DFE0E4" transform="translate(324,208)"/>
<path d="M0 0 C0.66 0 1.32 0 2 0 C2.33 0.99 2.66 1.98 3 3 C2.01 3.33 1.02 3.66 0 4 C0 4.66 0 5.32 0 6 C-0.66 6 -1.32 6 -2 6 C-1.125 1.125 -1.125 1.125 0 0 Z " fill="#B2B3B5" transform="translate(336,306)"/>
<path d="M0 0 C0.66 1.32 1.32 2.64 2 4 C0.02 4.33 -1.96 4.66 -4 5 C-2.25 1.125 -2.25 1.125 0 0 Z " fill="#DADBDE" transform="translate(195,277)"/>
<path d="M0 0 C0.33 0.66 0.66 1.32 1 2 C1.66 2 2.32 2 3 2 C3 2.66 3 3.32 3 4 C2.34 4 1.68 4 1 4 C0.67 4.99 0.34 5.98 0 7 C-0.66 5.35 -1.32 3.7 -2 2 C-1.34 1.34 -0.68 0.68 0 0 Z " fill="#B5B7B6" transform="translate(324,250)"/>
<path d="M0 0 C0.66 0 1.32 0 2 0 C1.34 2.64 0.68 5.28 0 8 C-0.66 7.01 -1.32 6.02 -2 5 C-1.125 2.3125 -1.125 2.3125 0 0 Z " fill="#97989A" transform="translate(190,230)"/>
<path d="M0 0 C0.12375 0.5775 0.2475 1.155 0.375 1.75 C1.00648824 4.02335767 1.88858191 5.9253529 3 8 C1.68 8 0.36 8 -1 8 C-1.04241723 5.66705225 -1.04092937 3.33297433 -1 1 C-0.67 0.67 -0.34 0.34 0 0 Z " fill="#B9B9B9" transform="translate(250,225)"/>
<path d="M0 0 C0.66 0.33 1.32 0.66 2 1 C1.34 2.65 0.68 4.3 0 6 C-0.99 5.67 -1.98 5.34 -3 5 C-3 4.01 -3 3.02 -3 2 C-2.01 1.34 -1.02 0.68 0 0 Z " fill="#B2B2B3" transform="translate(193,211)"/>
<path d="M0 0 C0.78375 0.2475 1.5675 0.495 2.375 0.75 C2.705 1.41 3.035 2.07 3.375 2.75 C0.405 2.42 -2.565 2.09 -5.625 1.75 C-2.625 -0.25 -2.625 -0.25 0 0 Z " fill="#A9A9AC" transform="translate(233.625,212.25)"/>
<path d="M0 0 C0.66 0.66 1.32 1.32 2 2 C1.8125 4 1.8125 4 1 6 C0.01 6.66 -0.98 7.32 -2 8 C-1.47731534 5.23723823 -0.89130413 2.6739124 0 0 Z " fill="#E2E2E4" transform="translate(138,209)"/>
</svg>
